<svg xmlns="http://www.w3.org/2000/svg" width="16" height="13" viewBox="0 0 16 13">
  <path fill="#FFF" fill-rule="evenodd" stroke="#FFF" d="M7.92743719,1.6654323 C7.73671,1.4448559 7.41927607,1.4448559 7.22188022,1.6654323 C7.03115252,1.87855675 7.03115252,2.23326715 7.22188022,2.44589495 L10.7994604,6.4435914 L-1.00606548,6.4435914 C-1.281264,6.4440886 -1.5,6.68851025 -1.5,6.9960257 C-1.5,7.3035406 -1.281264,7.5559114 -1.00606548,7.5559114 L10.7994604,7.5559114 L7.22188022,11.5461564 C7.03115252,11.7667328 7.03115252,12.1219399 7.22188022,12.3345677 C7.41927607,12.5551441 7.73715437,12.5551441 7.92743719,12.3345677 L12.3519531,7.39047965 C12.549349,7.1773552 12.549349,6.8226448 12.3519531,6.610017 L7.92743719,1.6654323 Z" transform="rotate(-180 6.75 6.75)"/>
</svg>
