<svg xmlns="http://www.w3.org/2000/svg" width="12" height="12" viewBox="0 0 12 12">
  <g fill-rule="evenodd">
    <path d="M10.8373306,8.4 C10.4369135,8.4 10.1032325,8.74090909 10.1032325,9.15 L10.1032325,10.5 L2.06819604,10.5 L2.06819604,9.15 C2.06819604,8.74090909 1.73451512,8.4 1.33409802,8.4 C0.933680918,8.4 0.6,8.72727273 0.6,9.15 L0.6,11.25 C0.6,11.6590909 0.933680918,12 1.33409802,12 L10.8373306,12 C11.2377477,12 11.5714286,11.6590909 11.5714286,11.25 L11.5714286,9.15 C11.5714286,8.72727273 11.2377477,8.4 10.8373306,8.4 Z"/>
    <path d="M6.13904762,0.0670807453 C5.73904762,0.0670807453 5.40571429,0.402484472 5.40571429,0.804968944 L5.40571429,6.68124224 L2.55238095,3.81018634 C2.27238095,3.5284472 1.80571429,3.5284472 1.51238095,3.81018634 C1.23238095,4.09192547 1.23238095,4.56149068 1.51238095,4.85664596 L5.61904762,8.98881988 C5.65904762,9.02906832 5.68571429,9.05590062 5.72571429,9.08273292 C5.72571429,9.08273292 5.72571429,9.08273292 5.72571429,9.08273292 C5.76571429,9.10956522 5.80571429,9.13639752 5.84571429,9.14981366 C5.84571429,9.14981366 5.84571429,9.14981366 5.84571429,9.14981366 C5.88571429,9.16322981 5.93904762,9.17664596 5.97904762,9.19006211 C5.97904762,9.19006211 5.97904762,9.19006211 5.97904762,9.19006211 C6.01904762,9.20347826 6.07238095,9.20347826 6.12571429,9.20347826 C6.12571429,9.20347826 6.12571429,9.20347826 6.12571429,9.20347826 C6.12571429,9.20347826 6.12571429,9.20347826 6.12571429,9.20347826 C6.27238095,9.20347826 6.41904762,9.14981366 6.52571429,9.08273292 C6.52571429,9.08273292 6.52571429,9.08273292 6.52571429,9.08273292 C6.56571429,9.05590062 6.60571429,9.02906832 6.63238095,8.98881988 C6.63238095,8.98881988 6.63238095,8.98881988 6.63238095,8.98881988 L10.672381,4.85664596 C10.952381,4.56149068 10.952381,4.10534161 10.6590476,3.81018634 C10.3657143,3.5284472 9.91238095,3.5284472 9.61904762,3.82360248 L6.87238095,6.65440994 L6.87238095,0.804968944 C6.87238095,0.402484472 6.55238095,0.0670807453 6.13904762,0.0670807453 Z"/>
  </g>
</svg>
