<svg xmlns="http://www.w3.org/2000/svg" width="19" height="20" viewBox="0 0 19 20">
  <path fill="#FFF" fill-rule="evenodd" d="M19.918667,0.581458646 C19.7663896,0.193967672 19.5018157,0 19.1231976,0 L1.87630316,0 C1.49943289,0 1.23398513,0.194189857 1.08105227,0.581458646 C0.928337877,0.988724102 0.991477302,1.33622174 1.27003359,1.62439593 L7.91300024,8.97206021 L7.91300024,15.2301283 C7.91300024,15.4883075 7.99842417,15.7129367 8.1686166,15.9013498 L11.6190005,19.7158251 C11.7797985,19.9053491 11.9821068,20 12.2248331,20 C12.3323231,20 12.4450564,19.9746709 12.5619408,19.9249014 C12.9123756,19.7560407 13.0875929,19.4632006 13.0875929,19.0457146 L13.0875929,8.9722824 L19.7309965,1.62461812 C20.0095528,1.33622174 20.0711629,0.988724102 19.918667,0.581458646 Z" transform="translate(-1)"/>
</svg>
