<svg xmlns="http://www.w3.org/2000/svg" width="14" height="13" viewBox="0 0 14 13">
  <g fill="#B7B7B7" fill-rule="evenodd">
    <path d="M2.53252548,7.08782861 C2.53299778,6.48694873 2.74175386,5.92426265 3.11109153,5.50413088 L7,1.08440921 L5.74037905,1.08333333 C5.41165907,1.09570597 5.0819945,1.24417763 4.83262072,1.52874832 L0.392539535,6.58485396 C-0.130295257,7.18089237 -0.131239854,8.16532404 0.392067236,8.76082452 L3.7217739,12.5538451 C4.24508099,13.1493456 5.10986013,13.1482697 5.63316722,12.5533072 L6.07098822,12.0535602 L3.10259015,8.67367811 C2.73325248,8.25247045 2.53252548,7.68870849 2.53252548,7.08782861 Z"/>
    <path fill-rule="nonzero" d="M12.5841695,0.00376545816 L9.03540607,0 C8.68976664,0.0123722197 8.34363061,0.161376778 8.08092478,0.445399908 L3.41280605,5.50187229 C2.86306058,6.0973526 2.86206736,7.08175095 3.41181283,7.67723126 L6.91339849,11.4701235 C7.46314396,12.0661417 8.3729305,12.0650659 8.92217936,11.4695855 L13.5898015,6.41257524 C13.8525073,6.12909003 13.9875848,5.75630968 14,5.38083971 L14,1.53469316 C13.9995034,0.692306378 13.3618582,0.00376545816 12.5841695,0.00376545816 Z M11.5174547,4.30338075 C10.6945747,4.30338075 10.0276296,3.58095071 10.0276296,2.68961297 C10.0276296,1.79827523 10.6945747,1.07584519 11.5174547,1.07584519 C12.3403348,1.07584519 13.0072799,1.79827523 13.0072799,2.68961297 C13.0072799,3.58095071 12.3403348,4.30338075 11.5174547,4.30338075 Z"/>
  </g>
</svg>
