<svg xmlns="http://www.w3.org/2000/svg" width="20" height="20" viewBox="0 0 20 20">
  <path fill="#FFF" fill-rule="evenodd" d="M10.3635267,10.3349226 L2.19849827,11.1251874 L0.0494777661,17.9970552 C-0.0788050845,18.4033186 0.0473371767,18.8469431 0.370183054,19.1249304 C0.693028931,19.4029177 1.15046643,19.4617861 1.53317651,19.274598 L19.4281452,10.6097973 C19.7780382,10.4391223 20,10.0838901 20,9.69458941 C20,9.30528867 19.7780382,8.95005655 19.4281452,8.77938155 L1.54567082,0.108333711 C1.16296074,-0.0788543953 0.705523237,-0.0199859927 0.382677359,0.2580013 C0.0598314819,0.535988592 -0.0663107792,0.979613077 0.0619720714,1.38587642 L2.21099257,8.2577443 L10.3604032,9.04800911 C10.6896439,9.08056883 10.9405352,9.35749547 10.9405352,9.68834226 C10.9405352,10.019189 10.6896439,10.2961157 10.3604032,10.3286754 L10.3635267,10.3349226 Z"/>
</svg>
