<svg xmlns="http://www.w3.org/2000/svg" width="16" height="13" viewBox="0 0 16 13">
  <path fill="#FFF002" fill-rule="evenodd" stroke="#FFF002" d="M180.427437,347.165432 C180.23671,346.944856 179.919276,346.944856 179.72188,347.165432 C179.531153,347.378557 179.531153,347.733267 179.72188,347.945895 L183.29946,351.943591 L171.493935,351.943591 C171.218736,351.944089 171,352.18851 171,352.496026 C171,352.803541 171.218736,353.055911 171.493935,353.055911 L183.29946,353.055911 L179.72188,357.046156 C179.531153,357.266733 179.531153,357.62194 179.72188,357.834568 C179.919276,358.055144 180.237154,358.055144 180.427437,357.834568 L184.851953,352.89048 C185.049349,352.677355 185.049349,352.322645 184.851953,352.110017 L180.427437,347.165432 Z" transform="rotate(-180 93 179.5)"/>
</svg>
