<svg xmlns="http://www.w3.org/2000/svg" width="20" height="18" viewBox="0 0 20 18">
  <path fill="#FFF" fill-rule="evenodd" d="M19.9703864,1.1812786 C19.8865718,0.749054212 19.5832037,0.201014077 18.6183133,0.0143190863 C17.4882468,-0.137167916 16.6124861,0.944087938 15.9215265,1.80297755 C15.771069,1.98967254 15.6271531,2.16988185 15.4873258,2.32785453 C15.3528135,2.48026806 15.191317,2.69753841 15.1046405,2.81613374 C14.8666887,2.86523962 14.722364,3.1835013 14.6246484,3.40030839 C14.6087031,3.43551638 14.595211,3.46748153 14.5833543,3.49018141 C14.3732045,3.65510304 14.2354214,3.88997739 14.1291199,4.07481933 L10.2748734,9.06647821 C10.1640746,9.19155922 9.68694446,9.73959935 9.52953649,10.0495223 C8.91094363,10.7522923 8.35040773,11.5287211 7.80254624,12.2875459 L7.60220883,12.5914464 C7.53924564,12.6868786 7.47750901,12.780921 7.41618123,12.8731103 C7.3544446,12.7971352 7.29311682,12.7220866 7.2321979,12.6479645 C7.06783945,12.4473716 6.91002263,12.2546542 6.76283596,12.0531348 C6.58334999,11.7821259 6.40222862,11.5083375 6.14751391,11.1506985 L5.80407835,10.7671167 C5.67815198,10.5535525 5.54813709,10.332576 5.35025279,10.1083567 C5.17403763,9.90869035 4.81261259,9.43106619 4.81056833,9.42874988 C4.49697895,9.00254791 3.8808392,8.23492111 3.84240713,8.19832334 L3.75000661,8.03988739 C3.49651845,7.60534669 3.11383311,6.94936627 2.74300448,6.53567241 C2.6501951,6.4657197 2.55779458,6.40039961 2.46539406,6.34110195 L2.47520651,6.31237964 C2.3962981,6.26744313 2.31166576,6.23455146 2.22825999,6.20490262 C2.1984138,6.18683537 2.16734106,6.173864 2.16897647,6.173864 C2.00788883,6.08260119 1.79446816,6.07982161 1.77075475,6.07982161 L1.76257772,6.14097233 C1.04831352,6.14745801 0.204852132,6.62786175 0.0433556478,7.48906767 C-0.110372651,8.01301813 0.172143984,8.58051531 0.460793397,8.907579 L1.23474997,9.78453587 L1.28135908,9.89015983 L1.30466363,9.93139024 C1.78710883,10.6147032 2.27936647,11.3809402 2.75527003,12.122161 L2.79165785,12.1735832 C2.81618896,12.201379 2.85625644,12.2778174 2.88896459,12.3473068 C3.38531075,13.4035465 4.29459728,14.1586652 4.8923387,15.1305909 C5.23577426,15.6892861 5.60210553,16.1766388 5.92959587,16.7413564 C6.1000871,17.0355284 6.25790391,17.5293668 6.5289727,17.7318127 C7.85610583,18.7231955 8.52376092,16.7181933 9.06712504,15.7416348 L9.07652863,15.7170819 C9.50868505,15.2000804 9.85907109,14.7419133 10.389352,14.0484086 L10.4547683,13.9631682 C10.8799742,13.3697283 11.3072244,12.7767516 11.733248,12.1948933 L12.4037651,11.3892789 C13.2672602,10.3492535 14.0833285,9.3671359 15.0531251,8.26688626 C16.2269388,6.67048194 17.3897135,5.34832933 18.608092,4.22445328 C19.2961897,3.58978296 20.1727681,2.22732646 19.9703864,1.1812786 Z"/>
</svg>
