<svg xmlns="http://www.w3.org/2000/svg" width="20" height="18" viewBox="0 0 20 18">
  <path fill="#FFF" d="M20,9.5 C20,9.97222222 19.6578947,10.3333333 19.2105263,10.3333333 L6.97368421,10.3333333 C6.65789474,11.3055556 5.76315789,12 4.73684211,12 C3.71052632,12 2.84210526,11.3055556 2.5,10.3333333 L0.789473684,10.3333333 C0.342105263,10.3333333 0,9.97222222 0,9.5 C0,9.02777778 0.342105263,8.66666667 0.789473684,8.66666667 L2.5,8.66666667 C2.81578947,7.69444444 3.71052632,7 4.73684211,7 C5.76315789,7 6.63157895,7.69444444 6.97368421,8.66666667 L19.2105263,8.66666667 C19.6578947,8.66666667 20,9.02777778 20,9.5 Z M19.2105263,15.6666667 L12.2368421,15.6666667 C11.9210526,14.6944444 11.0263158,14 10,14 C8.97368421,14 8.10526316,14.6944444 7.76315789,15.6666667 L0.789473684,15.6666667 C0.342105263,15.6666667 0,16.0277778 0,16.5 C0,16.9722222 0.342105263,17.3333333 0.789473684,17.3333333 L7.76315789,17.3333333 C8.07894737,18.3055556 8.97368421,19 10,19 C11.0263158,19 11.8947368,18.3055556 12.2368421,17.3333333 L19.2105263,17.3333333 C19.6578947,17.3333333 20,16.9722222 20,16.5 C20,16.0277778 19.6578947,15.6666667 19.2105263,15.6666667 Z M0.789473684,4.33333333 L13.0263158,4.33333333 C13.3421053,5.30555556 14.2368421,6 15.2631579,6 C16.2894737,6 17.1578947,5.30555556 17.5,4.33333333 L19.2105263,4.33333333 C19.6578947,4.33333333 20,3.97222222 20,3.5 C20,3.02777778 19.6578947,2.66666667 19.2105263,2.66666667 L17.5,2.66666667 C17.1842105,1.69444444 16.2894737,1 15.2631579,1 C14.2368421,1 13.3684211,1.69444444 13.0263158,2.66666667 L0.789473684,2.66666667 C0.342105263,2.66666667 0,3.02777778 0,3.5 C0,3.97222222 0.342105263,4.33333333 0.789473684,4.33333333 Z" transform="translate(0 -1)"/>
</svg>
