<svg xmlns="http://www.w3.org/2000/svg" width="11" height="9" viewBox="0 0 11 9">
  <path fill="#FFF" fill-rule="evenodd" d="M9.87369565,2.24036918 C9.87847826,2.33788122 9.88027174,2.43659711 9.88027174,2.53410915 C9.88027174,5.53772071 7.61032609,9 3.45961957,9 C2.18445652,9 0.998967391,8.62379615 0,7.9785313 C0.176956522,7.99959872 0.356304348,8.01043339 0.538043478,8.01043339 C1.59619565,8.01043339 2.5688587,7.64686998 3.34065217,7.03832263 C2.3536413,7.01966292 1.51967391,6.3635634 1.23271739,5.46067416 C1.37021739,5.48655698 1.51190217,5.50040128 1.65717391,5.50040128 C1.86342391,5.50040128 2.06309783,5.47331461 2.25201087,5.42154896 C1.21956522,5.21207865 0.441793478,4.29414125 0.441793478,3.19261637 L0.441793478,3.16432584 C0.746086957,3.33467095 1.09461957,3.43699839 1.46407609,3.44903692 C0.858478261,3.04093098 0.459728261,2.34630819 0.459728261,1.55718299 C0.459728261,1.14125201 0.570923913,0.750601926 0.765815217,0.414727127 C1.87836957,1.79012841 3.54211957,2.69422151 5.4175,2.78932584 C5.37923913,2.6225923 5.35951087,2.44983949 5.35951087,2.27106742 C5.35951087,1.01665329 6.36923913,0 7.61570652,0 C8.26494565,0 8.85141304,0.275080257 9.26331522,0.716894061 C9.77684783,0.614566613 10.2598913,0.425561798 10.6963043,0.165529695 C10.5277174,0.695826645 10.1696196,1.14125201 9.70391304,1.42235152 C10.1606522,1.36697432 10.5946739,1.24598716 11,1.06480738 C10.6975,1.52106742 10.3148913,1.92074639 9.87369565,2.24036918 Z"/>
</svg>
