<svg xmlns="http://www.w3.org/2000/svg" width="6" height="13" viewBox="0 0 6 13">
  <path fill="#FFF" fill-rule="evenodd" d="M4,9.72727273 L4,6.45454545 L4.88888889,6.45454545 C5.55555556,6.45454545 5.77777778,6.45454545 5.77777778,6.40909091 C5.77777778,6.36363636 5.82222222,5.95454545 5.86666667,5.45454545 C5.91111111,4.95454545 5.95555556,4.45454545 5.95555556,4.36363636 L5.95555556,4.18181818 L4.97777778,4.18181818 L4,4.18181818 L4,3.45454545 C4,3.04545455 4.04444444,2.63636364 4.08888889,2.59090909 C4.17777778,2.36363636 4.4,2.27272727 5.24444444,2.27272727 L6,2.27272727 L6,1.13636364 L6,0 L4.8,0 C3.46666667,0 3.11111111,0.0454545455 2.57777778,0.318181818 C2.22222222,0.5 1.86666667,0.863636364 1.68888889,1.18181818 C1.46666667,1.68181818 1.37777778,2 1.37777778,3.13636364 L1.33333333,4.18181818 L0.666666667,4.18181818 L0,4.18181818 L0,5.31818182 L0,6.45454545 L0.666666667,6.45454545 L1.33333333,6.45454545 L1.33333333,9.72727273 L1.33333333,13 L2.66666667,13 L4,13 L4,9.72727273 Z"/>
</svg>
