<svg xmlns="http://www.w3.org/2000/svg" width="14" height="13" viewBox="0 0 14 13">
  <g fill="#FFF" fill-rule="evenodd">
    <path fill-rule="nonzero" d="M13.9815789,1.57748538 C13.9815789,0.737754182 13.3217881,0.0570175439 12.5078947,0.0570175439 L1.49210526,0.0570175439 C0.678211948,0.0570175439 0.0184210526,0.737754182 0.0184210526,1.57748538 L0.0184210526,12.4868421 C0.0205064637,12.6204636 0.0904483679,12.7431394 0.202631579,12.8099415 L0.386842105,12.8669591 C0.452055458,12.8651156 0.515624953,12.8454394 0.571052632,12.8099415 L4.23684211,10.5672515 L12.5078947,10.5672515 C13.3217881,10.5672515 13.9815789,9.88651482 13.9815789,9.04678363 L13.9815789,1.57748538 Z M13.2447368,9.04678363 C13.2447368,9.46664923 12.9148414,9.80701754 12.5078947,9.80701754 L4.14473684,9.80701754 L3.96052632,9.86403509 L0.755263158,11.8216374 L0.755263158,1.57748538 C0.755263158,1.15761978 1.08515861,0.817251462 1.49210526,0.817251462 L12.5078947,0.817251462 C12.9148414,0.817251462 13.2447368,1.15761978 13.2447368,1.57748538 L13.2447368,9.04678363 Z"/>
    <ellipse cx="7.35" cy="4.904" rx="1" ry="1"/>
    <ellipse cx="10.758" cy="4.904" rx="1" ry="1"/>
    <ellipse cx="3.942" cy="4.904" rx="1" ry="1"/>
  </g>
</svg>
